<?xml version="1.0"?>
 <svg width="100" height="100" version="1.1" viewBox="0 0 100 100" xmlns="http://www.w3.org/2000/svg"> <path d="m87.801 64.234c0.59766-2.6992 0.94141-5.4961 0.94141-8.375 0-17.223-11.273-31.836-26.824-36.91 0.0625-0.5 0.10547-1.0078 0.10547-1.5273 0-6.6836-5.4375-12.125-12.125-12.125-6.6836 0-12.121 5.4375-12.121 12.125 0 0.51953 0.042968 1.0273 0.10547 1.5273-15.551 5.0703-26.824 19.688-26.824 36.91 0 3.082 0.38672 6.0703 1.0703 8.9453-0.59375 0.26953-1.1719 0.57812-1.7227 0.94531-2.6953 1.793-4.5273 4.5312-5.1641 7.707-0.63672 3.1758 0.003906 6.4062 1.7969 9.1016 1.7969 2.6953 4.5312 4.5273 7.707 5.1641 0.80078 0.16016 1.6055 0.23828 2.4062 0.23828 2.3672 0 4.6836-0.69531 6.6953-2.0391 0.28516-0.1875 0.55469-0.39453 0.81641-0.60547 6.793 5.832 15.598 9.3789 25.234 9.3789 9.8398 0 18.816-3.6992 25.664-9.7539 2.0352 1.5469 4.5664 2.4766 7.3125 2.4766 6.6875 0.003906 12.125-5.4336 12.125-12.117 0-4.9297-2.9648-9.1758-7.1992-11.066zm0.13281-8.375c0 2.7734-0.32422 5.4648-0.89062 8.0703-1.3008-0.47656-2.6992-0.75391-4.1641-0.75391-4.0039 0-7.5508 1.9609-9.7578 4.9609l-7.3867-4.3555c1.1953-2.3828 1.8711-5.0742 1.8711-7.9219 0-9.3672-7.2773-17.031-16.488-17.656v-8.7188c5.3359-0.53125 9.6602-4.543 10.68-9.7227 15.156 5.0039 26.137 19.281 26.137 36.098zm-38.035-49.75c6.2383 0 11.312 5.0742 11.312 11.312s-5.0742 11.312-11.312 11.312c-6.2383 0-11.312-5.0742-11.312-11.312s5.0742-11.312 11.312-11.312zm-38.031 49.75c0-16.816 10.98-31.094 26.141-36.098 1.0156 5.1797 5.3398 9.1914 10.68 9.7227v8.7188c-9.2109 0.625-16.488 8.2891-16.488 17.656 0 2.9023 0.70312 5.6406 1.9414 8.0586l-7.4531 4.4805c-1.7852-2.3008-4.2969-3.8711-7.1797-4.4492-2.25-0.45312-4.5273-0.25-6.6211 0.53906-0.65234-2.7773-1.0195-5.6602-1.0195-8.6289zm11.531 29.391c-2.5156 1.6758-5.5312 2.2695-8.4961 1.6797-2.9648-0.59375-5.5195-2.3047-7.1914-4.8203-1.6758-2.5156-2.2734-5.5312-1.6797-8.4961 0.59375-2.9648 2.3047-5.5195 4.8203-7.1953 1.8789-1.2539 4.0391-1.9023 6.25-1.9023 0.74609 0 1.4961 0.074219 2.2461 0.22266 2.9648 0.59375 5.5195 2.3047 7.1914 4.8203 1.6758 2.5156 2.2734 5.5312 1.6797 8.4961-0.59375 2.9648-2.3047 5.5195-4.8203 7.1953zm26.5 8.6406c-9.3906 0-17.977-3.4414-24.613-9.1055 1.9023-1.7305 3.2148-4 3.7266-6.5703 0.53516-2.668 0.15625-5.3672-1.0352-7.7617l7.4141-4.457c3.1992 4.5703 8.5039 7.5664 14.508 7.5664 6.0586 0 11.406-3.0469 14.598-7.6875l7.3828 4.3516c-0.71484 1.5469-1.1289 3.2617-1.1289 5.0742 0 3.6406 1.6211 6.9062 4.1719 9.1289-6.6875 5.875-15.438 9.4609-25.023 9.4609zm32.977-7.2773c-6.2383 0-11.312-5.0742-11.312-11.312s5.0742-11.312 11.312-11.312 11.312 5.0742 11.312 11.312c0.003906 6.2383-5.0742 11.312-11.312 11.312z"></path> </svg> 