<?xml version="1.0"?>
 <svg width="100" height="100" version="1.1" viewBox="0 0 100 100" xmlns="http://www.w3.org/2000/svg"> <path d="m70.121 67.719h11.922l-17.602 17.559v-11.879c0.007813-3.1289 2.5469-5.668 5.6797-5.6797zm13.039-44.52v40.52h-13.039c-5.3438 0.003906-9.6758 4.3359-9.6797 9.6797v13.039l-33.961 0.003906c-5.3242-0.003906-9.6367-4.3164-9.6406-9.6406v-53.602c0.003906-5.3242 4.3164-9.6367 9.6406-9.6406h47.039c5.3242 0.003906 9.6367 4.3164 9.6406 9.6406zm-42.441 23.242c0.011719-1.4883-0.57422-2.918-1.6289-3.9727-1.0508-1.0508-2.4805-1.6367-3.9688-1.6289h-5.3594c-1.1055 0-2 0.89453-2 2v14.32c0 0.53125 0.21094 1.0391 0.58594 1.4141s0.88281 0.58594 1.4141 0.58594c1.0938-0.015625 1.9805-0.90234 2-2v-5.1602h3.3594c3.0742 0 5.5781-2.4844 5.5977-5.5586zm15.762-0.039062v-0.003906c0.003906-1.4727-0.58203-2.8906-1.625-3.9336-1.043-1.043-2.4609-1.6289-3.9336-1.625h-5.4023c-1.1055 0-2 0.89453-2 2v14.32c0 0.53125 0.21094 1.0391 0.58594 1.4141s0.88281 0.58594 1.4141 0.58594h5.4023c1.4727 0.003906 2.8906-0.58203 3.9336-1.625 1.043-1.043 1.6289-2.4609 1.625-3.9336zm15.879-3.5586v-0.003906c0-0.53125-0.21094-1.0391-0.58594-1.4141s-0.88281-0.58594-1.4141-0.58594h-9c-1.1055 0-2 0.89453-2 2v14.32c0 1.1055 0.89453 2 2 2s2-0.89453 2-2v-5.1602h4.6406c1.1055 0 2-0.89453 2-2s-0.89453-2-2-2h-4.6406v-3.1602h7c1.0977-0.015625 1.9844-0.90234 2-2zm-37.238 2-3.3594-0.003906v3.1602h3.3594c0.86719 0 1.5781-0.69141 1.5977-1.5586 0.011719-0.42969-0.15234-0.84375-0.45312-1.1445-0.30469-0.30469-0.71875-0.46875-1.1445-0.45703zm15.801 0h-3.3984v10.32h3.3984v-0.003906c0.85156-0.019531 1.5352-0.70703 1.5586-1.5586v-7.2031c-0.023438-0.85156-0.70703-1.5391-1.5586-1.5586z"></path> </svg> 