<?xml version="1.0"?>
 <svg width="100" height="100" version="1.1" viewBox="0 0 100 100" xmlns="http://www.w3.org/2000/svg"> <g> <path d="m28.75 5.418c-13.332 0-24.582 11.25-24.582 24.582s11.25 24.168 24.582 24.168 24.168-10.832 24.168-24.168c0-13.332-10.836-24.582-24.168-24.582zm0 45c-11.25 0-20.418-9.168-20.418-20.418s9.168-20.418 20.418-20.418 20.418 9.168 20.418 20.418-9.168 20.418-20.418 20.418z"></path> <path d="m71.25 45.832c-13.332 0-24.168 10.832-24.168 24.168 0 13.332 10.832 24.168 24.168 24.168 13.332 0 24.582-10.836 24.582-24.168s-11.25-24.168-24.582-24.168zm0 45c-11.25 0-20.418-9.168-20.418-20.418s9.168-20.418 20.418-20.418 20.418 9.168 20.418 20.418c0 11.254-9.168 20.418-20.418 20.418z"></path> <path d="m60 14.168c11.668 0 21.25 8.75 22.918 20l-5.418-2.918c-0.83203-0.41797-2.082 0-2.5 0.83203s0 2.082 0.83203 2.5l8.332 4.582c0.41797 0 0.41797 0.41797 0.83203 0.41797 0.41797 0 0.41797 0 0.83203-0.41797 0 0 0.41797 0 0.41797-0.41797l5.832-7.5c0.83203-0.83203 0.41797-2.082-0.41797-2.5-0.83203-0.83203-2.082-0.41797-2.5 0.41797l-2.918 3.75c-2.082-12.5-13.332-22.082-26.25-22.082-0.83203 0-1.668 0.83203-1.668 1.668 0.007812 0.83203 0.84375 1.668 1.6758 1.668z"></path> <path d="m42.082 86.668c-11.668 0-21.25-8.75-22.918-20l5.418 2.918c0.83203 0.41797 2.082 0 2.5-0.83203 0.41797-0.83203 0-2.082-0.83203-2.5l-8.332-4.582h-0.83203-0.41797c-0.41797 0-0.41797 0-0.83203 0.41797 0 0-0.41797 0-0.41797 0.41797l-5.832 7.5c-0.83203 0.83203-0.41797 2.082 0.41797 2.5 0.41797 0.41797 0.83203 0.41797 1.25 0.41797 0.41797 0 1.25-0.41797 1.668-0.83203l2.918-3.75c2.082 12.5 13.332 22.082 26.25 22.082 0.83203 0 1.668-0.83203 1.668-1.668-0.007812-1.2578-0.83984-2.0898-1.6758-2.0898z"></path> <path d="m28.75 13.75c-9.168 0-16.25 7.082-16.25 16.25 0 8.75 7.082 16.25 16.25 16.25s16.25-7.082 16.25-16.25-7.5-16.25-16.25-16.25zm0 28.75c-6.668 0-12.5-5.418-12.5-12.5 0-6.668 5.418-12.5 12.5-12.5s12.5 5.418 12.5 12.5c0 6.668-5.832 12.5-12.5 12.5z"></path> <path d="m71.25 53.75c-8.75 0-16.25 7.082-16.25 16.25 0 8.75 7.082 16.25 16.25 16.25s16.25-7.082 16.25-16.25c0-8.75-7.082-16.25-16.25-16.25zm0 28.75c-7.082 0-12.5-5.418-12.5-12.5s5.418-12.5 12.5-12.5 12.5 5.418 12.5 12.5-5.418 12.5-12.5 12.5z"></path> </g> </svg> 