<?xml version="1.0"?>
 <svg fill="#787F8F" width="100" height="100" version="1.1" viewBox="0 0 100 100" xmlns="http://www.w3.org/2000/svg"> <g> <path d="m79.688 68.75v-50c0-0.86328-0.69922-1.5625-1.5625-1.5625h-68.75c-0.86328 0-1.5625 0.69922-1.5625 1.5625v50c0 0.86328 0.69922 1.5625 1.5625 1.5625h68.75c0.86328 0 1.5625-0.69922 1.5625-1.5625zm-3.125-1.5625h-65.625v-46.875h65.625z"></path> <path d="m85.938 75v-53.125c0-0.86328-0.69922-1.5625-1.5625-1.5625s-1.5625 0.69922-1.5625 1.5625v51.562h-70.312c-0.86328 0-1.5625 0.69922-1.5625 1.5625s0.69922 1.5625 1.5625 1.5625h71.875c0.86328 0 1.5625-0.69922 1.5625-1.5625z"></path> <path d="m90.625 23.438c-0.86328 0-1.5625 0.69922-1.5625 1.5625v54.688h-73.438c-0.86328 0-1.5625 0.69922-1.5625 1.5625s0.69922 1.5625 1.5625 1.5625h75c0.86328 0 1.5625-0.69922 1.5625-1.5625v-56.25c0-0.86328-0.69922-1.5625-1.5625-1.5625z"></path> </g> </svg> 