<?xml version="1.0"?>
 <svg width="100" height="100" version="1.1" viewBox="0 0 100 100" xmlns="http://www.w3.org/2000/svg"> <path d="m51 54c0 0.55078-0.44922 1-1 1s-1-0.44922-1-1 0.44922-1 1-1 1 0.44922 1 1zm33.289 22.43-5.4609 1.4609c-0.17188 0.050781-0.35156 0.070313-0.51953 0.070313-0.87891 0-1.6914-0.58984-1.9297-1.4805-0.28906-1.0703 0.35156-2.1602 1.4102-2.4492l0.80078-0.21094-10.961-6.3281-16.66 9.2617c-0.29688 0.16797-0.64062 0.24609-0.96875 0.24609s-0.67188-0.078125-0.96875-0.25l-16.66-9.2617-10.961 6.3281 0.80078 0.21094c1.0703 0.28906 1.6992 1.3789 1.4102 2.4492-0.23828 0.89063-1.0508 1.4805-1.9297 1.4805-0.17188 0-0.35156-0.019531-0.51953-0.070312l-5.4609-1.4609c-1.0703-0.28906-1.6992-1.3789-1.4102-2.4492l1.4609-5.4609c0.28906-1.0703 1.3789-1.6992 2.4492-1.4102 1.0703 0.28906 1.6992 1.3789 1.4102 2.4492l-0.21094 0.80078 10.59-6.1172v-21.238c0-0.73047 0.39062-1.3984 1.0312-1.75l16.969-9.4297v-10.992l-0.58984 0.58984c-0.78125 0.78125-2.0508 0.78125-2.8281 0-0.78125-0.78125-0.78125-2.0508 0-2.8281l4-4c0.78125-0.78125 2.0508-0.78125 2.8281 0l4 4c0.78125 0.78125 0.78125 2.0508 0 2.8281-0.39062 0.38281-0.89844 0.58203-1.4102 0.58203s-1.0195-0.19922-1.4102-0.58984l-0.58984-0.58203v10.988l16.969 9.4297c0.64062 0.35547 1.0312 1.0234 1.0312 1.7539v21.238l10.59 6.1211-0.21094-0.80078c-0.28906-1.0703 0.35156-2.1602 1.4102-2.4492 1.0703-0.28906 2.1602 0.35156 2.4492 1.4102l1.4609 5.4609c0.28906 1.0703-0.33984 2.168-1.4102 2.4492zm-18.289-31.039-12.07 7.3789c-0.16016 0.10156-0.33984 0.14844-0.51953 0.14844-0.33984 0-0.67188-0.17188-0.85156-0.48047-0.28906-0.46875-0.14062-1.0898 0.32812-1.3711l12.148-7.4297-15.035-8.3477-15.039 8.3516 12.148 7.4297c0.46875 0.28906 0.62109 0.89844 0.32812 1.3711-0.19141 0.30859-0.51953 0.48047-0.85156 0.48047-0.17969 0-0.35938-0.050781-0.51953-0.14844l-12.066-7.3828v18.43l15 8.3281v-14.148c0-0.55078 0.44922-1 1-1s1 0.44922 1 1v14.16l15-8.3281z"></path> </svg> 