<?xml version="1.0"?>
<svg height="100" width="100" fill="#666666" xmlns="http://www.w3.org/2000/svg" data-name="pa" viewBox="0 0 50 50" x="0px" y="0px"><title>icone-gesturesespanse</title><path d="M21.31,5.3a2.551,2.551,0,0,1,2.524,2.563l0,2.259a3.733,3.733,0,1,0-5.054.008V7.92A2.577,2.577,0,0,1,21.31,5.3Z" fill="none"></path><path d="M33.106,31.768c1.416-1.216,1.151-6.672.977-10.281-.044-.893-.084-1.718-.1-2.419a1.182,1.182,0,0,0-2.34.024v3.622a.6.6,0,0,1-.595.6h0a.6.6,0,0,1-.6-.591l-.065-4.37a1.21,1.21,0,0,0-1.324-.975c-.719,0-1.326.459-1.326,1v3.537a.6.6,0,0,1-.6.6h0a.6.6,0,0,1-.6-.6l-.022-4.366a1.338,1.338,0,0,0-2.65.037v4.121a.6.6,0,0,1-.6.6h0a.6.6,0,0,1-.6-.6L22.635,7.875A1.36,1.36,0,0,0,21.31,6.5,1.378,1.378,0,0,0,19.984,7.92V21.1c0,1.784-.271,2.952-.809,3.47-.511.492-1.63,1.167-3.379.134-.562-.332-1.076-.673-1.553-.99a5.889,5.889,0,0,0-2.588-1.262c-1.182,0-2.6.235-2.663,1.355-.019.345-.021.4.9.447a2.759,2.759,0,0,1,1.8.529,14.637,14.637,0,0,1,1.372,1.629,21.262,21.262,0,0,0,3.612,3.915c.044.032,4.426,3.319,4.426,4.367v2.222H31.351C31.287,35.717,31.391,33.238,33.106,31.768Z" fill="none"></path><path d="M33.887,32.678c1.862-1.6,1.6-6.95,1.394-11.25-.043-.88-.082-1.694-.1-2.387a2.287,2.287,0,0,0-2.369-2.175,2.453,2.453,0,0,0-1.506.508,2.572,2.572,0,0,0-2.253-1.2,2.757,2.757,0,0,0-1.553.466,2.515,2.515,0,0,0-2.32-1.423,2.633,2.633,0,0,0-1.335.358L23.841,11.6a4.933,4.933,0,1,0-5.056,0v9.5c0,1.721-.278,2.447-.443,2.606s-.707.687-1.936-.036c-.542-.32-1.038-.65-1.5-.956a6.461,6.461,0,0,0-3.253-1.462c-3.244,0-3.812,1.561-3.862,2.491-.084,1.6,1.295,1.67,2.036,1.709a1.975,1.975,0,0,1,1.06.223,14.786,14.786,0,0,1,1.228,1.475A22.116,22.116,0,0,0,15.968,31.3a25.777,25.777,0,0,1,3.935,3.5v2.115H18.418a.6.6,0,0,0-.6.6V45.5a.6.6,0,1,0,1.2,0V38.12H33.543V45.5a.6.6,0,1,0,1.2,0V37.521a.6.6,0,0,0-.6-.6H32.556C32.5,35.953,32.544,33.83,33.887,32.678ZM17.575,7.374a3.733,3.733,0,1,1,6.264,2.747l0-2.259a2.526,2.526,0,1,0-5.05.058v2.209A3.713,3.713,0,0,1,17.575,7.374ZM21.1,36.921V34.7c0-1.048-4.382-4.335-4.426-4.367a21.262,21.262,0,0,1-3.612-3.915,14.637,14.637,0,0,0-1.372-1.629,2.759,2.759,0,0,0-1.8-.529c-.922-.049-.919-.1-.9-.447.06-1.12,1.481-1.355,2.663-1.355a5.889,5.889,0,0,1,2.588,1.262c.477.317.99.658,1.553.99,1.749,1.033,2.868.358,3.379-.134.537-.518.809-1.686.809-3.47V7.92A1.378,1.378,0,0,1,21.31,6.5a1.36,1.36,0,0,1,1.325,1.376l.022,13.838a.6.6,0,0,0,.6.6h0a.6.6,0,0,0,.6-.6V17.591a1.338,1.338,0,0,1,2.65-.037l.022,4.366a.6.6,0,0,0,.6.6h0a.6.6,0,0,0,.6-.6V18.38c0-.543.607-1,1.326-1a1.21,1.21,0,0,1,1.324.975l.065,4.37a.6.6,0,0,0,.6.591h0a.6.6,0,0,0,.6-.6V19.092a1.182,1.182,0,0,1,2.34-.024c.015.7.055,1.526.1,2.419.175,3.609.439,9.065-.977,10.281-1.715,1.471-1.819,3.949-1.755,5.153Z"></path><path d="M9.587,16.118c.015.015.033.025.048.039a.592.592,0,0,0,.378.156h0a.6.6,0,0,0,.415-.177l.012-.009c.01-.011.025-.015.035-.026l2-2.366a.6.6,0,0,0-.918-.773l-.938,1.113V7.243a.582.582,0,0,0-.031-.151V5.941l.962,1.191a.6.6,0,1,0,.934-.754l-2.03-2.513c-.009-.012-.024-.017-.035-.028s-.033-.025-.048-.039a.592.592,0,0,0-.378-.156.538.538,0,0,0-.465.213L7.531,6.223A.6.6,0,1,0,8.449,7l.937-1.112v6.83a.582.582,0,0,0,.031.151v1.15l-.961-1.191a.6.6,0,1,0-.934.754l2.029,2.513C9.561,16.1,9.577,16.107,9.587,16.118Z"></path></svg>