<?xml version="1.0"?>
 <svg width="100" height="100" version="1.1" viewBox="0 0 100 100" xmlns="http://www.w3.org/2000/svg"> <path d="m73.707 21.875h-17.457l-0.17578-0.007812c-0.15625-0.011719-0.19531-0.011719-0.35156-0.039063-1.7656-0.30078-3.043-2.3438-2.4258-4.1133 0.42578-1.2109 1.6523-2.0547 2.9492-2.0938h25c0.058594 0.003906 0.11719 0.003906 0.17578 0.007812 0.15625 0.011719 0.19531 0.011719 0.35156 0.039063 1.3203 0.22656 2.4297 1.3711 2.582 2.7305 0.015625 0.15625 0.015625 0.19531 0.019531 0.35156v25c-0.039062 1.3672-0.97656 2.6328-2.2578 3.0039-1.7305 0.49609-3.7617-0.80859-3.9727-2.6523-0.015625-0.15625-0.015625-0.19531-0.019531-0.35156v-17.457l-51.832 51.832h17.457l0.17578 0.007812c1.9961 0.16406 3.5078 2.3984 2.7109 4.3164-0.42578 1.0234-1.4297 1.7852-2.5391 1.9102-0.15625 0.015625-0.19531 0.015625-0.35156 0.019531h-25c-0.15625-0.003906-0.19531-0.003906-0.35156-0.019531-1.3906-0.15625-2.5977-1.3398-2.7578-2.7578-0.015625-0.15625-0.015625-0.19531-0.019531-0.35156v-25c0.003906-0.15625 0.003906-0.19531 0.019531-0.35156 0.15625-1.3906 1.3398-2.5977 2.7578-2.7578 0.33594-0.039063 0.41797-0.015625 0.52344-0.011719 0.15625 0.011719 0.19531 0.011719 0.35156 0.039063 1.3203 0.22656 2.4297 1.3711 2.582 2.7305 0.015626 0.15625 0.015626 0.19531 0.019532 0.35156v17.457l51.832-51.832z"></path> </svg> 